<svg aria-hidden="true" style="position: absolute; width: 0; height: 0; overflow: hidden;" version="1.1" xmlns="http://www.w3.org/2000/svg" xmlns:xlink="http://www.w3.org/1999/xlink">
<defs>

<symbol id="icon-close" viewBox="0 0 32 32">
<path stroke-linejoin="round" stroke-linecap="round" stroke-miterlimit="4" stroke-width="2" d="M24 8l-16 16"></path>
<path stroke-linejoin="round" stroke-linecap="round" stroke-miterlimit="4" stroke-width="2" d="M8 8l16 16"></path>
</symbol>

<symbol id="icon-burgerMenu" viewBox="0 0 43 32">
<path d="M2.133 0.533h38.4c1.178 0 2.133 0.955 2.133 2.133s-0.955 2.133-2.133 2.133h-38.4c-1.178 0-2.133-0.955-2.133-2.133s0.955-2.133 2.133-2.133z"></path>
<path d="M2.133 13.867h38.4c1.178 0 2.133 0.955 2.133 2.133s-0.955 2.133-2.133 2.133h-38.4c-1.178 0-2.133-0.955-2.133-2.133s0.955-2.133 2.133-2.133z"></path>
<path d="M2.133 27.2h38.4c1.178 0 2.133 0.955 2.133 2.133s-0.955 2.133-2.133 2.133h-38.4c-1.178 0-2.133-0.955-2.133-2.133s0.955-2.133 2.133-2.133z"></path>
</symbol>

<symbol id="icon-edit" viewBox="0 0 32 32">
<path d="M27 0c2.761 0 5 2.239 5 5 0 1.126-0.372 2.164-1 3l-2 2-7-7 2-2c0.836-0.628 1.874-1 3-1zM2 23l-2 9 9-2 18.5-18.5-7-7-18.5 18.5zM22.362 11.362l-14 14-1.724-1.724 14-14 1.724 1.724z"></path>
</symbol>

<symbol id="close" viewBox="0 0 20 20">
<path d="M10 8.586l-7.071-7.071-1.414 1.414 7.071 7.071-7.071 7.071 1.414 1.414 7.071-7.071 7.071 7.071 1.414-1.414-7.071-7.071 7.071-7.071-1.414-1.414-7.071 7.071z"></path>
</symbol>

<symbol id="icon-user" viewBox="0 0 32 32">
<path fill="none" stroke="#c7c7c7" style="stroke: var(--color1, #c7c7c7)" stroke-linejoin="round" stroke-linecap="round" stroke-miterlimit="4" stroke-width="1.8824" d="M26.039 27.294v-2.51c0-1.331-0.529-2.608-1.47-3.55s-2.218-1.47-3.549-1.47h-10.039c-1.331 0-2.608 0.529-3.549 1.47s-1.47 2.218-1.47 3.55v2.51"></path>
<path fill="none" stroke="#c7c7c7" style="stroke: var(--color1, #c7c7c7)" stroke-linejoin="round" stroke-linecap="round" stroke-miterlimit="4" stroke-width="1.8824" d="M16 14.745c2.772 0 5.020-2.247 5.020-5.020s-2.247-5.020-5.020-5.020c-2.772 0-5.020 2.247-5.020 5.020s2.247 5.020 5.020 5.020z"></path>
</symbol>

<symbol id="icon-phone" viewBox="0 0 32 32">
<path fill="none" stroke="#c7c7c7" style="stroke: var(--color1, #c7c7c7)" stroke-linejoin="round" stroke-linecap="round" stroke-miterlimit="4" stroke-width="1.8824" d="M28.549 22.174v3.765c0.001 0.35-0.070 0.696-0.21 1.016s-0.345 0.608-0.603 0.844c-0.258 0.236-0.561 0.416-0.893 0.528s-0.682 0.154-1.030 0.122c-3.861-0.42-7.571-1.739-10.83-3.852-3.032-1.927-5.603-4.497-7.529-7.529-2.121-3.274-3.441-7.001-3.853-10.88-0.031-0.347 0.010-0.697 0.121-1.027s0.29-0.634 0.525-0.891c0.235-0.257 0.521-0.463 0.84-0.604s0.663-0.214 1.012-0.214h3.765c0.609-0.006 1.199 0.21 1.661 0.607s0.763 0.949 0.849 1.552c0.159 1.205 0.454 2.388 0.878 3.526 0.169 0.449 0.205 0.937 0.105 1.407s-0.333 0.9-0.67 1.241l-1.594 1.594c1.786 3.142 4.388 5.743 7.529 7.529l1.594-1.594c0.341-0.337 0.772-0.57 1.241-0.67s0.958-0.064 1.407 0.105c1.138 0.425 2.322 0.72 3.526 0.878 0.61 0.086 1.166 0.393 1.564 0.863s0.61 1.069 0.594 1.685z"></path>
</symbol>

<symbol id="icon-calendar" viewBox="0 0 32 32">
<path fill="none" stroke="#c7c7c7" style="stroke: var(--color1, #c7c7c7)" stroke-linejoin="round" stroke-linecap="round" stroke-miterlimit="4" stroke-width="1.8824" d="M24.784 5.961h-17.569c-1.386 0-2.51 1.124-2.51 2.51v17.569c0 1.386 1.124 2.51 2.51 2.51h17.569c1.386 0 2.51-1.124 2.51-2.51v-17.569c0-1.386-1.124-2.51-2.51-2.51z"></path>
<path fill="none" stroke="#c7c7c7" style="stroke: var(--color1, #c7c7c7)" stroke-linejoin="round" stroke-linecap="round" stroke-miterlimit="4" stroke-width="1.8824" d="M21.020 3.451v5.020"></path>
<path fill="none" stroke="#c7c7c7" style="stroke: var(--color1, #c7c7c7)" stroke-linejoin="round" stroke-linecap="round" stroke-miterlimit="4" stroke-width="1.8824" d="M10.98 3.451v5.020"></path>
<path fill="none" stroke="#c7c7c7" style="stroke: var(--color1, #c7c7c7)" stroke-linejoin="round" stroke-linecap="round" stroke-miterlimit="4" stroke-width="1.8824" d="M4.706 13.49h22.588"></path>
</symbol>

<symbol id="icon-chevron-down" viewBox="0 0 32 32">
<path fill="none" stroke="#c7c7c7" style="stroke: var(--color1, #c7c7c7)" stroke-linejoin="round" stroke-linecap="round" stroke-miterlimit="4"  d="M8.471 12.235l7.529 7.529 7.529-7.529"></path>
</symbol>

<symbol id="icon-hash" viewBox="0 0 32 32">
<path fill="none" stroke="#6D6D6D" style="stroke: var(--color1, #6D6D6D)" stroke-linejoin="round" stroke-linecap="round" stroke-miterlimit="4" stroke-width="1.8824" d="M5.961 12.235h20.078"></path>
<path fill="none" stroke="#6D6D6D" style="stroke: var(--color1, #6D6D6D)" stroke-linejoin="round" stroke-linecap="round" stroke-miterlimit="4" stroke-width="1.8824" d="M5.961 19.765h20.078"></path>
<path fill="none" stroke="#6D6D6D" style="stroke: var(--color1, #6D6D6D)" stroke-linejoin="round" stroke-linecap="round" stroke-miterlimit="4" stroke-width="1.8824" d="M13.49 4.706l-2.51 22.588"></path>
<path fill="none" stroke="#6D6D6D" style="stroke: var(--color1, #6D6D6D)" stroke-linejoin="round" stroke-linecap="round" stroke-miterlimit="4" stroke-width="1.8824" d="M21.020 4.706l-2.51 22.588"></path>
</symbol>

<symbol id="envelop" viewBox="0 0 32 32">
<path fill="#c7c7c7" d="M29 4h-26c-1.65 0-3 1.35-3 3v20c0 1.65 1.35 3 3 3h26c1.65 0 3-1.35 3-3v-20c0-1.65-1.35-3-3-3zM12.461 17.199l-8.461 6.59v-15.676l8.461 9.086zM5.512 8h20.976l-10.488 7.875-10.488-7.875zM12.79 17.553l3.21 3.447 3.21-3.447 6.58 8.447h-19.579l6.58-8.447zM19.539 17.199l8.461-9.086v15.676l-8.461-6.59z"></path>
</symbol>

<symbol id="credit-card" viewBox="0 0 32 32">
<path fill="#c7c7c7" d="M29 4h-26c-1.65 0-3 1.35-3 3v18c0 1.65 1.35 3 3 3h26c1.65 0 3-1.35 3-3v-18c0-1.65-1.35-3-3-3zM3 6h26c0.542 0 1 0.458 1 1v3h-28v-3c0-0.542 0.458-1 1-1zM29 26h-26c-0.542 0-1-0.458-1-1v-9h28v9c0 0.542-0.458 1-1 1zM4 20h2v4h-2zM8 20h2v4h-2zM12 20h2v4h-2z"></path>
</symbol>

<symbol id="icon-delete" viewBox="0 0 32 32">
<path d="M4 10v20c0 1.1 0.9 2 2 2h18c1.1 0 2-0.9 2-2v-20h-22zM10 28h-2v-14h2v14zM14 28h-2v-14h2v14zM18 28h-2v-14h2v14zM22 28h-2v-14h2v14z"></path>
<path d="M26.5 4h-6.5v-2.5c0-0.825-0.675-1.5-1.5-1.5h-7c-0.825 0-1.5 0.675-1.5 1.5v2.5h-6.5c-0.825 0-1.5 0.675-1.5 1.5v2.5h26v-2.5c0-0.825-0.675-1.5-1.5-1.5zM18 4h-6v-1.975h6v1.975z"></path>
</symbol>

<symbol id="icon-exit" viewBox="0 0 32 32">
<path d="M24 20v-4h-10v-4h10v-4l6 6zM22 18v8h-10v6l-12-6v-26h22v10h-2v-8h-16l8 4v18h8v-6z"></path>
</symbol>

<symbol id="icon-AutoOpti" viewBox="0 0 312 32">
<path d="M32.067 31.238h-9.752l12.824-30.476h14.336l2.146 30.476h-9.801l-0.195-4.827h-7.656l-1.902 4.827zM40.893 18.658v-8.533h-0.488l-3.413 8.533h3.901zM20.754 31.043l-19.992-2.146h20.919l-0.926 2.146zM22.754 26.313l-19.992-2.146h20.919l-0.926 2.146zM24.753 21.632l-19.992-2.146h20.87l-0.878 2.146zM26.703 16.951l-19.944-2.146h20.87l-0.926 2.146zM28.702 12.27l-19.944-2.146h20.821l-0.878 2.146zM32.652 2.859l-19.895-2.097h20.773l-0.878 2.097zM30.653 7.54l-19.895-2.097h20.773l-0.878 2.097zM32.652 2.859l0.878-2.097h-20.773l19.895 2.097zM68.326 21.681l-20.675-2.194h21.065l-0.39 2.194zM69.155 17l-20.675-2.194h21.065l-0.39 2.194zM69.984 12.318l-20.675-2.194h21.065l-0.39 2.194zM70.813 7.637l-20.675-2.194h21.016l-0.341 2.194zM68.131 24.168v0.975c0 0.553 0.016 0.959 0.049 1.219l-20.675-2.194h20.626zM70.032 31.092l-20.675-2.194h19.261c0.358 0.91 0.829 1.642 1.414 2.194zM80.029 24.411c0.878 0 1.479-0.098 1.804-0.293 0.358-0.227 0.601-0.748 0.731-1.56l3.072-17.115h8.192l-2.536 14.531c-0.78 4.551-2.048 7.672-3.803 9.362-1.723 1.658-4.681 2.487-8.875 2.487-3.348 0-5.689-0.488-7.022-1.463-1.333-1.008-1.999-2.747-1.999-5.218 0-1.365 0.179-3.088 0.536-5.169l2.585-14.531h8.192l-3.316 18.968h2.438zM128.233 12.757h-5.266l-3.218 18.481h-8.582l3.218-18.481h-5.413l1.317-7.314h19.261l-1.317 7.314zM109.703 31.092l-20.675-2.194h21.065l-0.39 2.194zM111.361 21.681l-20.675-2.194h21.065l-0.39 2.194zM112.19 17l-20.675-2.194h21.065l-0.39 2.194zM107.509 12.318l-20.675-2.194h21.065l-0.39 2.194zM108.338 7.637l-20.675-2.194h21.016l-0.341 2.194zM110.532 26.362l-20.675-2.194h21.065l-0.39 2.194zM156.76 4.955c3.511 0 6.014 0.683 7.509 2.048 1.496 1.333 2.243 3.43 2.243 6.29 0 1.398-0.178 3.088-0.536 5.071-0.812 4.681-2.243 8.094-4.291 10.24s-5.266 3.218-9.654 3.218c-3.446 0-5.9-0.666-7.363-1.999-1.463-1.365-2.194-3.462-2.194-6.29 0-1.463 0.179-3.186 0.536-5.169 0.813-4.681 2.227-8.078 4.242-10.191 2.015-2.146 5.185-3.218 9.508-3.218zM153.445 24.411c0.943 0 1.643-0.114 2.097-0.341 0.488-0.227 0.814-0.731 0.975-1.512l1.853-10.191h-2.974c-0.91 0-1.624 0.114-2.146 0.341-0.488 0.228-0.78 0.715-0.877 1.463l-1.804 10.24h2.876zM141.303 19.486c-0.13 1.008-0.211 1.69-0.244 2.048l-19.212-2.048h19.456zM142.23 14.805l-0.439 2.048-19.066-2.048h19.505zM141.011 24.168c0 0.52 0.065 1.203 0.195 2.048l-19.163-2.048h18.968zM143.936 10.124c-0.39 0.845-0.667 1.495-0.829 1.95l-18.432-1.95h19.261zM142.035 28.898c0.39 0.78 0.813 1.382 1.268 1.804l-17.018-1.804h15.75zM148.179 5.443c-0.78 0.455-1.447 0.992-1.999 1.609l-14.97-1.609h16.969zM196.003 23.631c1.268 0 2.211-0.146 2.828-0.439 0.619-0.325 1.024-1.040 1.219-2.146l2.243-12.678h-3.901c-1.234 0-2.161 0.163-2.779 0.488-0.617 0.293-1.024 0.992-1.219 2.097l-2.243 12.678h3.852zM200.002 0.030c4.13 0 7.070 0.813 8.826 2.438 1.755 1.593 2.633 4.064 2.633 7.412s-0.536 6.859-1.609 10.533c-1.039 3.641-2.714 6.485-5.022 8.533-2.275 2.016-5.623 3.023-10.045 3.023-4.389 0-7.461-0.796-9.216-2.389-1.755-1.625-2.633-4.112-2.633-7.461 0-1.593 0.229-3.69 0.683-6.29 0.456-2.633 1.058-4.892 1.804-6.778 0.748-1.918 1.755-3.576 3.023-4.974 2.438-2.698 6.29-4.047 11.557-4.047zM182.203 15.781c-0.064 0.26-0.13 0.618-0.195 1.073l-19.163-2.048h19.505l-0.146 0.975zM181.667 19.486c-0.098 0.748-0.146 1.43-0.146 2.048l-19.212-2.048h19.358zM183.52 10.124l-0.585 1.999-18.92-1.999h19.505zM181.57 24.168c0.131 0.91 0.244 1.593 0.341 2.048l-18.968-2.048h18.627zM185.519 5.443c-0.454 0.845-0.78 1.495-0.975 1.95l-18.237-1.95h19.212zM183.032 28.898c0.424 0.748 0.911 1.349 1.463 1.804l-16.872-1.804h15.409zM190.152 0.762c-0.942 0.585-1.673 1.122-2.194 1.609l-14.921-1.609h17.115zM240.446 25.192h-4.73l-1.073 6.046h-8.192l4.486-25.795h12.386c4.715 0 7.070 2.227 7.070 6.68 0 2.015-0.293 3.868-0.878 5.559s-1.219 3.023-1.902 3.998c-0.683 0.975-1.658 1.804-2.926 2.487-1.234 0.683-2.648 1.024-4.242 1.024zM241.519 13.879c0-0.033 0.017-0.13 0.049-0.293 0-0.683-0.698-1.024-2.097-1.024h-1.56l-1.024 6.046h1.512c0.748 0 1.333-0.081 1.755-0.244 0.424-0.195 0.683-0.585 0.78-1.17l0.585-3.316zM224.843 31.092l-20.675-2.194h21.065l-0.39 2.194zM226.501 21.681l-20.675-2.194h21.065l-0.39 2.194zM227.33 17l-20.675-2.194h21.065l-0.39 2.194zM228.158 12.318l-20.675-2.194h21.065l-0.39 2.194zM228.987 7.637l-20.675-2.194h21.016l-0.341 2.194zM225.672 26.362l-20.675-2.194h21.065l-0.39 2.194zM284.884 12.757h-5.266l-3.218 18.481h-8.582l3.218-18.481h-5.413l1.317-7.314h19.261l-1.317 7.314zM266.354 31.092l-20.675-2.194h21.065l-0.39 2.194zM268.012 21.681l-20.675-2.194h21.065l-0.39 2.194zM268.841 17l-20.675-2.194h21.065l-0.39 2.194zM264.16 12.318l-20.675-2.194h21.065l-0.39 2.194zM264.989 7.637l-20.675-2.194h21.016l-0.341 2.194zM267.183 26.362l-20.675-2.194h21.065l-0.39 2.194zM298.54 31.238l4.486-25.795h8.582l-4.535 25.795h-8.533zM296.931 31.092l-20.675-2.194h21.065l-0.39 2.194zM298.589 21.681l-20.675-2.194h21.065l-0.39 2.194zM299.418 17l-20.675-2.194h21.065l-0.39 2.194zM300.247 12.318l-20.675-2.194h21.065l-0.39 2.194zM301.076 7.637l-20.675-2.194h21.016l-0.341 2.194zM297.76 26.362l-20.675-2.194h21.065l-0.39 2.194z"></path>
</symbol>

</defs>
</svg>
