<svg aria-hidden="true" style="position: absolute; width: 0; height: 0; overflow: hidden;" version="1.1" xmlns="http://www.w3.org/2000/svg" xmlns:xlink="http://www.w3.org/1999/xlink">
<defs>
<symbol id="icon-logo" viewBox="0 0 32 32">
<path fill="#fff" style="fill: var(--color1, #fff)" d="M4.224 21.242c0.279 0 0.506-2.347 0.506-5.242s-0.226-5.242-0.506-5.242c-0.279 0-0.506 2.347-0.506 5.242s0.226 5.242 0.506 5.242z"></path>
<path fill="#fff" style="fill: var(--color1, #fff)" d="M5.568 21.824c0.311 0 0.563-2.607 0.563-5.824s-0.252-5.824-0.563-5.824c-0.311 0-0.563 2.607-0.563 5.824s0.252 5.824 0.563 5.824z"></path>
<path fill="#fff" style="fill: var(--color1, #fff)" d="M7.066 22.477c0.343 0 0.621-2.9 0.621-6.477s-0.278-6.477-0.621-6.477c-0.343 0-0.621 2.9-0.621 6.477s0.278 6.477 0.621 6.477z"></path>
<path fill="#fff" style="fill: var(--color1, #fff)" d="M8.723 23.194c0.382 0 0.691-3.221 0.691-7.194s-0.309-7.194-0.691-7.194c-0.382 0-0.691 3.221-0.691 7.194s0.309 7.194 0.691 7.194z"></path>
<path fill="#fff" style="fill: var(--color1, #fff)" d="M10.566 23.994c0.424 0 0.768-3.579 0.768-7.994s-0.344-7.994-0.768-7.994c-0.424 0-0.768 3.579-0.768 7.994s0.344 7.994 0.768 7.994z"></path>
<path fill="#fff" style="fill: var(--color1, #fff)" d="M12.621 24.883c0.47 0 0.851-3.977 0.851-8.883s-0.381-8.883-0.851-8.883c-0.47 0-0.851 3.977-0.851 8.883s0.381 8.883 0.851 8.883z"></path>
<path fill="#fff" style="fill: var(--color1, #fff)" d="M14.899 25.869c0.523 0 0.947-4.418 0.947-9.869s-0.424-9.869-0.947-9.869-0.947 4.418-0.947 9.869c0 5.45 0.424 9.869 0.947 9.869z"></path>
<path fill="#fff" style="fill: var(--color1, #fff)" d="M17.427 26.963c0.583 0 1.056-4.908 1.056-10.963s-0.473-10.963-1.056-10.963c-0.583 0-1.056 4.908-1.056 10.963s0.473 10.963 1.056 10.963z"></path>
<path fill="#fff" style="fill: var(--color1, #fff)" d="M20.237 28.186c0.647 0 1.171-5.456 1.171-12.186s-0.524-12.186-1.171-12.186c-0.647 0-1.171 5.456-1.171 12.186s0.524 12.186 1.171 12.186z"></path>
<path fill="#fff" style="fill: var(--color1, #fff)" d="M23.36 29.536c0.717 0 1.299-6.060 1.299-13.536s-0.582-13.536-1.299-13.536c-0.718 0-1.299 6.060-1.299 13.536s0.582 13.536 1.299 13.536z"></path>
<path fill="#fff" style="fill: var(--color1, #fff)" d="M26.829 31.040c0.799 0 1.446-6.734 1.446-15.040s-0.648-15.040-1.446-15.040-1.446 6.734-1.446 15.040c0 8.306 0.648 15.040 1.446 15.040z"></path>
</symbol>
<symbol id="icon-search" viewBox="0 0 32 32">
<path stroke-linejoin="round" stroke-linecap="round" stroke-miterlimit="4" stroke-width="2" d="M14.667 25.333c5.891 0 10.667-4.776 10.667-10.667s-4.776-10.667-10.667-10.667c-5.891 0-10.667 4.776-10.667 10.667s4.776 10.667 10.667 10.667z"></path>
<path stroke-linejoin="round" stroke-linecap="round" stroke-miterlimit="4" stroke-width="2" d="M28 28l-5.8-5.8"></path>
</symbol>
<symbol id="icon-bestPrice" viewBox="0 0 32 32">
<path fill="#fff" style="fill: var(--color1, #fff)" d="M16 1.466c-8.027 0-14.534 6.507-14.534 14.534s6.507 14.534 14.534 14.534c8.027 0 14.534-6.507 14.534-14.534s-6.507-14.534-14.534-14.534zM17.255 23.88v2.047h-1.958v-2.024c-3.213-0.44-4.62-3.080-4.62-3.080l2-1.673c0 0 1.277 2.223 3.587 2.223 1.276 0 2.244-0.683 2.244-1.85 0-2.728-7.35-2.397-7.35-7.458 0-2.2 1.74-3.785 4.138-4.16v-2.045h1.958v2.045c1.672 0.22 3.652 1.1 3.652 2.993v1.452h-2.596v-0.704c0-0.726-0.925-1.21-1.96-1.21-1.32 0-2.287 0.66-2.287 1.584 0 2.794 7.35 2.112 7.35 7.415 0 2.18-1.628 4.070-4.158 4.445z"></path>
</symbol>
<symbol id="BMW" viewBox="0 0 32 32">
<path fill="#000" style="fill: var(--color2, #000); stroke: var(--color1, #fff)" stroke="#fff" stroke-linejoin="miter" stroke-linecap="butt" stroke-miterlimit="4" stroke-width="0.4848" d="M31.413 16c0-8.489-6.923-15.413-15.413-15.413s-15.413 6.923-15.413 15.413c0 8.49 6.923 15.413 15.413 15.413s15.413-6.923 15.413-15.413z"></path>
<path fill="#fff" style="fill: var(--color1, #fff)" d="M7.186 11.45l-3.58-3.079 1.34-1.559c0.273-0.317 0.528-0.54 0.764-0.67 0.238-0.13 0.479-0.184 0.723-0.162s0.448 0.101 0.613 0.243c0.152 0.131 0.255 0.303 0.307 0.516 0.053 0.212 0.036 0.452-0.047 0.718 0.279-0.197 0.553-0.296 0.822-0.3s0.509 0.084 0.717 0.264c0.165 0.14 0.289 0.322 0.361 0.526 0.073 0.206 0.097 0.403 0.071 0.591s-0.098 0.39-0.214 0.606c-0.116 0.216-0.288 0.457-0.516 0.722l-1.362 1.584zM5.584 9.115l0.772-0.898c0.209-0.243 0.345-0.43 0.409-0.56 0.084-0.17 0.115-0.326 0.093-0.469s-0.096-0.268-0.221-0.375c-0.118-0.102-0.252-0.159-0.398-0.171-0.148-0.011-0.291 0.030-0.429 0.123s-0.337 0.29-0.594 0.589l-0.713 0.83 1.082 0.93zM7.237 10.537l0.889-1.033c0.153-0.178 0.254-0.308 0.305-0.389 0.089-0.144 0.147-0.277 0.174-0.402s0.021-0.251-0.018-0.38c-0.041-0.129-0.117-0.243-0.231-0.342-0.133-0.115-0.283-0.175-0.451-0.181s-0.33 0.045-0.492 0.152c-0.16 0.106-0.354 0.292-0.581 0.556l-0.826 0.96 1.23 1.058zM13.138 6.161v-4.049h1.068l1.267 2.867c0.117 0.267 0.203 0.467 0.256 0.6 0.061-0.147 0.156-0.364 0.286-0.65l1.282-2.817h0.954v4.049h-0.683v-3.389l-1.556 3.389h-0.64l-1.549-3.447v3.447h-0.683zM22.822 8.526l2.478-3.359 0.338 0.417-1.678 2.135c-0.173 0.222-0.352 0.439-0.537 0.65 0.399-0.193 0.629-0.304 0.693-0.331l2.593-1.133 0.398 0.491-1.232 1.728c-0.305 0.429-0.611 0.809-0.917 1.139 0.229-0.122 0.499-0.255 0.807-0.4l2.407-1.153 0.332 0.409-3.822 1.701-0.318-0.392 1.866-2.585c0.156-0.217 0.253-0.348 0.29-0.395-0.17 0.084-0.317 0.154-0.442 0.208l-2.919 1.286-0.336-0.415z"></path>
<path fill="#00acec" style="fill: var(--color3, #00acec)" d="M24.961 16.15c0 4.853-3.958 8.811-8.811 8.811v-8.811h8.811z"></path>
<path fill="#fff" style="fill: var(--color1, #fff)" d="M24.961 15.85c0-4.853-3.958-8.811-8.811-8.811v8.811h8.811z"></path>
<path fill="#00acec" style="fill: var(--color3, #00acec)" d="M7.039 15.85c0-4.853 3.958-8.811 8.811-8.811v8.811h-8.811z"></path>
<path fill="#fff" style="fill: var(--color1, #fff)" d="M7.039 16.15c0 4.853 3.958 8.811 8.811 8.811v-8.811h-8.811z"></path>
</symbol>
<symbol id="icon-instagram" viewBox="0 0 32 32">
<path fill="none" stroke-linejoin="round" stroke-linecap="round" stroke-miterlimit="4" stroke-width="1.3333" d="M22.667 2.667h-13.333c-3.682 0-6.667 2.985-6.667 6.667v13.333c0 3.682 2.985 6.667 6.667 6.667h13.333c3.682 0 6.667-2.985 6.667-6.667v-13.333c0-3.682-2.985-6.667-6.667-6.667z"></path>
<path fill="none" stroke-linejoin="round" stroke-linecap="round" stroke-miterlimit="4" stroke-width="1.3333" d="M21.334 15.16c0.165 1.11-0.025 2.243-0.542 3.239s-1.334 1.803-2.336 2.308c-1.002 0.504-2.138 0.68-3.245 0.502s-2.131-0.701-2.924-1.494c-0.793-0.793-1.316-1.816-1.494-2.924s-0.003-2.243 0.502-3.245c0.504-1.002 1.312-1.82 2.308-2.336s2.129-0.706 3.239-0.542c1.132 0.168 2.18 0.695 2.989 1.504s1.337 1.857 1.504 2.989z"></path>
<path fill="none" stroke-linejoin="round" stroke-linecap="round" stroke-miterlimit="4" stroke-width="1.3333" d="M23.333 8.667h0.013"></path>
</symbol>
<symbol id="icon-mail" viewBox="0 0 32 32">
<path fill="none"  stroke-linejoin="round" stroke-linecap="round" stroke-miterlimit="4" stroke-width="1.3333" d="M5.333 5.333h21.333c1.467 0 2.667 1.2 2.667 2.667v16c0 1.467-1.2 2.667-2.667 2.667h-21.333c-1.467 0-2.667-1.2-2.667-2.667v-16c0-1.467 1.2-2.667 2.667-2.667z"></path>
<path fill="none"  stroke-linejoin="round" stroke-linecap="round" stroke-miterlimit="4" stroke-width="1.3333" d="M29.333 8l-13.333 9.333-13.333-9.333"></path>
</symbol>
<symbol id="icon-map-pin" viewBox="0 0 32 32">
<path fill="none"  stroke-linejoin="round" stroke-linecap="round" stroke-miterlimit="4" stroke-width="1.28" d="M27.52 13.44c0 8.96-11.52 16.64-11.52 16.64s-11.52-7.68-11.52-16.64c0-3.055 1.214-5.985 3.374-8.146s5.091-3.374 8.146-3.374c3.055 0 5.985 1.214 8.146 3.374s3.374 5.091 3.374 8.146z"></path>
<path fill="none"  stroke-linejoin="round" stroke-linecap="round" stroke-miterlimit="4" stroke-width="1.28" d="M16 17.28c2.121 0 3.84-1.719 3.84-3.84s-1.719-3.84-3.84-3.84-3.84 1.719-3.84 3.84c0 2.121 1.719 3.84 3.84 3.84z"></path>
</symbol>
<symbol id="icon-medal" viewBox="0 0 32 32">
<path fill="#fff" style="fill: var(--color1, #fff)" d="M16.054 2.074l-0.971 1.345-1.415-0.865-0.382 1.614-1.639-0.258 0.265 1.637-1.613 0.389 0.872 1.411-1.341 0.976 1.345 0.97-0.866 1.415 1.614 0.382-0.258 1.638 1.638-0.265 0.389 1.612 1.412-0.871 0.976 1.341 0.971-1.345 1.415 0.865 0.382-1.614 1.639 0.258-0.265-1.637 1.613-0.389-0.872-1.411 1.341-0.976-1.345-0.97 0.865-1.415-1.614-0.382 0.258-1.638-1.637 0.265-0.389-1.612-1.411 0.871-0.976-1.341zM16.039 5.254c0.81 0 1.588 0.322 2.161 0.895s0.895 1.35 0.895 2.16c-0 0.81-0.322 1.587-0.895 2.16s-1.35 0.895-2.161 0.895c-0.81-0-1.588-0.322-2.161-0.895s-0.895-1.35-0.895-2.16c0-0.81 0.322-1.587 0.895-2.16s1.35-0.895 2.161-0.895h-0zM19.691 13.704l-0.497 2.102-1.844-1.127-0.6 0.831c0.722 5.049 1.114 10.082 3.363 15.2l1.019-4.073c0.647 0.85 1.694 1.603 3.056 2.036-1.912-4.773-2.632-9.784-3.367-14.792l-1.13-0.178zM12.468 13.719l-1.216 0.197c-0.733 4.997-1.454 9.996-3.362 14.757 1.362-0.433 2.409-1.186 3.056-2.036l1.019 4.073c2.264-5.151 2.646-10.218 3.378-15.299l-0.529-0.726-1.839 1.135-0.507-2.1z"></path>
</symbol>
<symbol id="Mercedes" viewBox="0 0 36 32">
<path fill="#fff" style="fill: var(--color1, #fff)" d="M18.456 20.933l3.246-1.803-3.023-18.923-0.223 20.726zM17.904 20.848l0.276-14.902-1.124 14.563 0.849 0.339zM16.25 19.852l-1.358-0.785 3.469-19.067-2.111 19.852zM20.503 20.382l1.262-0.764 14.171 11.88-15.433-11.116zM19.686 20.891l-0.848 0.636 13.153 7.68-12.305-8.316zM18.498 25.431v-3.744l17.311 10.278-17.311-6.534zM17.82 25.569l0.043-3.988-17.65 10.172 17.608-6.184zM16.801 20.764l0.764 0.679-4.37 2.333 3.606-3.012zM15.921 20.329l-1.326-0.795-14.595 11.795 15.921-11z"></path>
</symbol>
<symbol id="icon-phone" viewBox="0 0 32 32">
<path fill="none" stroke-linejoin="round" stroke-linecap="round" stroke-miterlimit="4" stroke-width="1.3333" d="M29.333 22.56v4c0.002 0.371-0.075 0.739-0.223 1.079s-0.367 0.646-0.641 0.897c-0.274 0.251-0.597 0.442-0.948 0.561s-0.725 0.163-1.094 0.13c-4.103-0.446-8.044-1.848-11.507-4.093-3.222-2.047-5.953-4.779-8-8-2.253-3.478-3.656-7.439-4.093-11.56-0.033-0.369 0.010-0.74 0.129-1.091s0.308-0.673 0.558-0.947c0.25-0.273 0.553-0.492 0.892-0.641s0.705-0.227 1.075-0.227h4c0.647-0.006 1.274 0.223 1.765 0.645s0.811 1.008 0.902 1.649c0.169 1.28 0.482 2.537 0.933 3.747 0.179 0.477 0.218 0.996 0.112 1.495s-0.353 0.956-0.712 1.319l-1.693 1.693c1.898 3.338 4.662 6.102 8 8l1.693-1.693c0.363-0.359 0.82-0.606 1.319-0.712s1.017-0.068 1.494 0.112c1.21 0.451 2.467 0.765 3.747 0.933 0.648 0.091 1.239 0.418 1.662 0.917s0.647 1.136 0.631 1.79z"></path>
</symbol>
<symbol id="icon-support" viewBox="0 0 32 32">
<path fill="#fff" style="fill: var(--color1, #fff)" d="M16 2.872c-7.239 0-13.128 5.889-13.128 13.128v5.439c0 1.344 1.178 2.438 2.626 2.438h1.313c0.348 0 0.682-0.138 0.928-0.384s0.385-0.58 0.385-0.928v-6.752c0-0.348-0.138-0.682-0.385-0.928s-0.58-0.385-0.928-0.385h-1.192c0.73-5.081 5.102-9.002 10.382-9.002s9.652 3.921 10.382 9.002h-1.192c-0.348 0-0.682 0.138-0.928 0.385s-0.384 0.58-0.384 0.928v8.065c0 1.448-1.178 2.626-2.626 2.626h-2.626v-1.313h-5.251v3.938h7.877c2.896 0 5.251-2.355 5.251-5.251 1.448 0 2.626-1.094 2.626-2.438v-5.439c0-7.239-5.889-13.128-13.128-13.128z"></path>
</symbol>
<symbol id="Volkswagen" viewBox="0 0 32 32">
<path fill="#fff" style="fill: var(--color1, #fff)" d="M16.007 0.518c8.515 0 15.476 6.96 15.476 15.49 0 8.515-6.96 15.461-15.476 15.461s-15.475-6.946-15.475-15.461c0-8.529 6.96-15.49 15.475-15.49zM5.647 7.681l5.551 14.4 2.034-5.26h5.333l2.034 5.26 5.609-14.574c-0.99-1.194-2.18-2.207-3.517-2.993l-3.894 10.724h-5.493l-3.908-10.767c-1.439 0.828-2.703 1.918-3.749 3.211zM28.446 11.299l-6.321 16.492c4.243-2.223 7.164-6.67 7.164-11.784 0-1.657-0.29-3.241-0.842-4.708zM19.364 28.867l-0.043-0.334-3.43-8.893-3.429 8.893-0.014 0.276c1.133 0.319 2.325 0.479 3.56 0.479 1.162 0 2.281-0.145 3.356-0.421zM9.628 27.646l-6.161-16.056c-0.494 1.38-0.756 2.863-0.756 4.417 0 4.999 2.79 9.387 6.917 11.639zM16.007 2.712c1.162 0 2.31 0.145 3.4 0.436l-3.357 9.285-3.371-9.3c1.087-0.281 2.205-0.423 3.328-0.421z"></path>
</symbol>
<symbol id="Toyota" viewBox="0 0 32 32">
<path d="M15.959 5.816c-8.724 0-15.842 4.555-15.842 10.143s7.118 10.143 15.842 10.143 15.842-4.555 15.842-10.143-7.118-10.143-15.842-10.143zM20.345 7.696c1.401 0.269 2.715 0.666 3.895 1.168 1.016 0.526 1.612 1.145 1.612 1.816 0 1.355-2.429 2.528-5.898 3.042-0.239-2.616-0.882-4.853-1.746-6.283 0.747 0.058 1.46 0.146 2.137 0.257zM15.959 7.352c1.314 0 2.418 2.785 2.727 6.528-0.87 0.082-1.781 0.128-2.727 0.128s-1.863-0.047-2.727-0.128c0.309-3.749 1.419-6.528 2.727-6.528zM7.679 8.864c1.18-0.502 2.493-0.893 3.895-1.168 0.672-0.111 1.39-0.199 2.137-0.257-0.864 1.431-1.507 3.673-1.746 6.283-3.469-0.52-5.898-1.688-5.898-3.042 0-0.672 0.596-1.296 1.612-1.816zM1.524 15.959c0-2.038 1.18-3.912 3.147-5.396-0.006 0.070-0.012 0.14-0.012 0.21 0 1.991 3.001 3.702 7.218 4.385-0.012 0.286-0.012 0.572-0.012 0.864 0 3.527 0.712 6.645 1.799 8.496-6.867-0.66-12.14-4.251-12.14-8.561zM16.309 24.631h-0.701c-1.39-0.531-2.47-4.193-2.47-8.607 0-0.234 0.006-0.461 0.012-0.689 0.899 0.093 1.839 0.146 2.809 0.146s1.91-0.053 2.809-0.146c0.006 0.228 0.012 0.461 0.012 0.689-0.006 4.415-1.086 8.076-2.47 8.607zM18.254 24.526c1.086-1.851 1.799-4.969 1.799-8.496 0-0.292-0.006-0.578-0.012-0.864 4.216-0.683 7.218-2.394 7.218-4.385 0-0.070-0.006-0.14-0.012-0.21 1.968 1.483 3.147 3.358 3.147 5.396 0 4.304-5.273 7.895-12.14 8.561z"></path>
</symbol>
</defs>
</svg>
